# Blender 4.5.3 LTS
# www.blender.org
mtllib cubeAr1.mtl
o Cube
v 0.427233 -0.427233 0.500000
v 0.500000 -0.500000 -0.500000
v -0.427233 -0.427233 0.500000
v -0.500000 -0.500000 -0.500000
v 0.427233 0.427233 0.500000
v 0.500000 0.500000 -0.500000
v -0.427233 0.427233 0.500000
v -0.500000 0.500000 -0.500000
v -0.500000 -0.500000 0.500000
v -0.500000 0.500000 0.500000
v 0.500000 -0.500000 0.500000
v 0.500000 0.500000 0.500000
vn -0.0000 -0.0000 1.0000
vn -1.0000 -0.0000 -0.0000
vn -0.0000 1.0000 -0.0000
vn -0.0000 -0.0000 -1.0000
vn -0.0000 -1.0000 -0.0000
vn 1.0000 -0.0000 -0.0000
vt 1.006346 -0.006346
vt -0.006346 1.006347
vt -0.006346 -0.006346
vt 0.625000 0.750000
vt 0.375000 1.000000
vt 0.375000 0.750000
vt 0.625000 0.000000
vt 0.375000 0.250000
vt 0.375000 0.000000
vt 0.375000 0.500000
vt 0.125000 0.750000
vt 0.125000 0.500000
vt 0.625000 0.500000
vt 0.625000 0.250000
vt 0.921955 0.921955
vt 0.006177 0.993823
vt 0.078045 0.921955
vt 0.006177 0.006177
vt 0.078045 0.078045
vt 0.921955 0.078045
vt 0.993823 0.993823
vt 0.993823 0.006177
vt 1.006347 1.006346
vt 0.625000 1.000000
s 0
usemtl yellow
f 9/4/2 8/5/2 4/6/2
f 10/7/3 6/8/3 8/9/3
f 2/10/4 8/11/4 6/12/4
f 11/13/5 4/6/5 2/10/5
f 12/14/6 2/10/6 6/8/6
f 9/4/2 10/24/2 8/5/2
f 10/7/3 12/14/3 6/8/3
f 2/10/4 4/6/4 8/11/4
f 11/13/5 9/4/5 4/6/5
f 12/14/6 11/13/6 2/10/6
usemtl aruco_100
f 5/1/1 3/2/1 1/3/1
f 5/1/1 7/23/1 3/2/1
usemtl white
f 7/15/1 9/16/1 3/17/1
f 3/17/1 11/18/1 1/19/1
f 5/20/1 10/21/1 7/15/1
f 1/19/1 12/22/1 5/20/1
f 7/15/1 10/21/1 9/16/1
f 3/17/1 9/16/1 11/18/1
f 5/20/1 12/22/1 10/21/1
f 1/19/1 11/18/1 12/22/1
